# xmcd
#
# Track frame offsets: 
#        150
#        14572
#        28152
#        42607
#        60490
#        75353
#
# Disc length: 1248 seconds
#
# Revision: 0
# Processed by: cddbd v1.5.2PL0 Copyright (c) Steve Scherf et al.
# Submitted via: ExactAudioCopy v1.0b3
#
DISCID=4504de06
DTITLE=Chris Jessen - Cool Breeze
DYEAR=1997
DGENRE=Country
TTITLE0=Down for the Count
TTITLE1=The Cowboy's Gonna Stay
TTITLE2=Cool Breeze
TTITLE3=A Little Bit More
TTITLE4=A Heart I Can't Break
TTITLE5=Go the Distance
EXTD=
EXTT0=
EXTT1=
EXTT2=
EXTT3=
EXTT4=
EXTT5=
PLAYORDER=
